#!OML:ASF E:\motion texture\Top Level 1\Subject 1\Session 1\male.ASF
:FULLY-SPECIFIED
:DEGREES
256
root 21.741 17.9082 4.01067 111.376 -80.0906 -106.024
lowerback -2.15779 -0.123678 7.70062
upperback -3.66363 -0.299437 3.92161
thorax -2.59905 -0.36854 -0.250396
lowerneck -9.62544 -0.231692 -5.46895
upperneck -11.8011 0.326333 11.0929
head -1.92213 -0.0362382 4.29823
rclavicle 1.50579e-014 -3.73715e-014
rhumerus 2.86047 12.1454 -98.0354
rradius 82.0258
rwrist -53.1792
rhand -11.8049 -62.4989
rfingers 7.12502
rthumb 14.245 -628.01
lclavicle 1.50579e-014 -3.73715e-014
lhumerus -10.3762 -13.4665 106.601
lradius 47.761
lwrist 47.7719
lhand -12.4109 57.0682
lfingers 7.12502
lthumb 13.6611 86.5998
rfemur -10.1668 5.42697 33.2312
rtibia 19.6354
rfoot -10.1263 -6.58672
rtoes 18.0522
lfemur -30.3824 2.62836 -7.51275
ltibia 48.2163
lfoot -6.76621 2.86606
ltoes -12.4468
257
root 21.6161 17.903 4.01902 114.414 -79.9021 -109.006
lowerback -2.22948 -0.16114 7.68118
upperback -3.62163 -0.361241 3.94008
thorax -2.5181 -0.395966 -0.2217
lowerneck -9.61676 -0.0170465 -5.4275
upperneck -11.8905 0.610046 11.1473
head -1.97345 0.0952523 4.31304
rclavicle -1.98785e-016 -5.1684e-015
rhumerus 1.80379 12.4425 -98.1884
rradius 81.7878
rwrist -53.1281
rhand -11.8541 -62.6066
rfingers 7.12502
rthumb 14.1976 -627.899
lclavicle -1.98785e-016 -5.1684e-015
lhumerus -9.04787 -13.4384 106.4
lradius 47.5373
lwrist 47.899
lhand -12.3847 57.011
lfingers 7.12502
lthumb 13.6862 86.541
rfemur -9.691 5.59599 33.2611
rtibia 19.5309
rfoot -10.4465 -6.38121
rtoes 17.7646
lfemur -30.7166 2.92358 -7.43992
ltibia 46.8157
lfoot -6.93751 3.4017
ltoes -12.3579
258
root 21.4912 17.8969 4.02771 117.258 -79.6934 -111.79
lowerback -2.28002 -0.202426 7.67045
upperback -3.59293 -0.424874 3.94925
thorax -2.46321 -0.425629 -0.207159
lowerneck -9.61446 0.190644 -5.38276
upperneck -11.963 0.884156 11.2092
head -2.01795 0.222311 4.329
rclavicle -1.23371e-014 1.63003e-014
rhumerus 0.733695 12.7518 -98.3518
rradius 81.5378
rwrist -53.0649
rhand -11.9041 -62.6926
rfingers 7.12502
rthumb 14.1494 -627.809
lclavicle -1.23371e-014 1.63003e-014
lhumerus -7.66202 -13.4291 106.156
lradius 47.3423
lwrist 48.0246
lhand -12.3549 56.9588
lfingers 7.12502
lthumb 13.7149 86.4869
rfemur -9.22868 5.7601 33.2821
rtibia 19.441
rfoot -10.7704 -6.1872
rtoes 17.4543
lfemur -31.0185 3.19365 -7.35249
ltibia 45.3469
lfoot -7.06912 3.92251
ltoes -12.2906
259
root 21.3662 17.8899 4.03673 119.916 -79.468 -114.383
lowerback -2.32639 -0.245954 7.65397
upperback -3.56923 -0.490676 3.96023
thorax -2.4159 -0.456573 -0.187542
lowerneck -9.60565 0.391737 -5.34362
upperneck -12.0325 1.14999 11.2706
head -2.06205 0.345441 4.3453
rclavicle -7.87684e-015 -4.6118e-014
rhumerus -0.335877 13.0816 -98.5069
rradius 81.2758
rwrist -52.9971
rhand -11.9548 -62.753
rfingers 7.12502
rthumb 14.1005 -627.745
lclavicle -7.87684e-015 -4.6118e-014
lhumerus -6.20651 -13.4314 105.881
lradius 47.1728
lwrist 48.1442
lhand -12.3162 56.9056
lfingers 7.12502
lthumb 13.7522 86.4312
rfemur -8.77832 5.92064 33.2944
rtibia 19.3646
rfoot -11.1003 -6.00555
rtoes 17.1372
lfemur -31.2875 3.43857 -7.25021
ltibia 43.8208
lfoot -7.16283 4.43099
ltoes -12.2445
260
root 21.241 17.882 4.04607 122.39 -79.23 -116.79
lowerback -2.37332 -0.291435 7.63284
upperback -3.54717 -0.558951 3.97145
thorax -2.36998 -0.488713 -0.165206
lowerneck -9.59252 0.585738 -5.30937
upperneck -12.1007 1.40694 11.3328
head -2.10579 0.464253 4.36227
rclavicle -1.52319e-014 5.82439e-014
rhumerus -1.39671 13.4315 -98.6544
rradius 81.0028
rwrist -52.9278
rhand -12.0043 -62.7935
rfingers 7.12502
rthumb 14.0529 -627.702
lclavicle -1.52319e-014 5.82439e-014
lhumerus -4.67702 -13.447 105.571
lradius 47.0266
lwrist 48.2587
lhand -12.2744 56.8196
lfingers 7.12502
lthumb 13.7926 86.3424
rfemur -8.33915 6.07625 33.2978
rtibia 19.3028
rfoot -11.4349 -5.83645
rtoes 16.8045
lfemur -31.5243 3.65741 -7.13436
ltibia 42.2495
lfoot -7.22045 4.93011
ltoes -12.2077
261
root 21.1155 17.8732 4.05574 124.689 -78.9837 -119.018
lowerback -2.41987 -0.338306 7.60554
upperback -3.52844 -0.628714 3.98274
thorax -2.32768 -0.521631 -0.139432
lowerneck -9.57282 0.771932 -5.27962
upperneck -12.1666 1.65401 11.395
head -2.14921 0.578282 4.37956
rclavicle -2.08848e-014 9.02482e-014
rhumerus -2.44883 13.7984 -98.7955
rradius 80.7207
rwrist -52.858
rhand -12.0493 -62.8111
rfingers 7.12502
rthumb 14.0095 -627.681
lclavicle -2.08848e-014 9.02482e-014
lhumerus -3.07747 -13.474 105.227
lradius 46.9016
lwrist 48.3682
lhand -12.2251 56.7178
lfingers 7.12502
lthumb 13.8401 86.2374
rfemur -7.91094 6.22621 33.291
rtibia 19.2562
rfoot -11.7746 -5.67989
rtoes 16.4581
lfemur -31.7301 3.84926 -7.00703
ltibia 40.645
lfoot -7.2442 5.42229
ltoes -12.177
262
root 20.9896 17.8636 4.06572 126.827 -78.7302 -121.084
lowerback -2.46199 -0.385795 7.57152
upperback -3.51477 -0.698402 3.99527
thorax -2.29292 -0.554689 -0.108624
lowerneck -9.54739 0.949237 -5.25578
upperneck -12.2279 1.88986 11.4578
head -2.19139 0.687056 4.39756
rclavicle 1.78782e-014 -7.71285e-014
rhumerus -3.49366 14.1833 -98.9289
rradius 80.4314
rwrist -52.7914
rhand -12.0895 -62.8047
rfingers 7.12502
rthumb 13.9707 -627.685
lclavicle 1.78782e-014 -7.71285e-014
lhumerus -1.41027 -13.5073 104.851
lradius 46.7931
lwrist 48.4711
lhand -12.1575 56.5574
lfingers 7.12502
lthumb 13.9052 86.0725
rfemur -7.49176 6.37088 33.2757
rtibia 19.2241
rfoot -12.1177 -5.53526
rtoes 16.0939
lfemur -31.904 4.01582 -6.86757
ltibia 39.0187
lfoot -7.23667 5.90992
ltoes -12.1543
263
root 20.863 17.8532 4.07604 128.812 -78.4722 -122.994
lowerback -2.50702 -0.436535 7.53169
upperback -3.50696 -0.772405 4.01082
thorax -2.26261 -0.590072 -0.0715186
lowerneck -9.49941 1.12209 -5.24583
upperneck -12.2904 2.1218 11.5269
head -2.23739 0.793887 4.41941
rclavicle 1.25234e-014 3.69739e-014
rhumerus -4.53556 14.5949 -99.059
rradius 80.1361
rwrist -52.7282
rhand -12.1223 -62.7707
rfingers 7.12502
rthumb 13.9392 -627.717
lclavicle 1.25234e-014 3.69739e-014
lhumerus 0.316008 -13.5364 104.441
lradius 46.7036
lwrist 48.5683
lhand -12.0785 56.4223
lfingers 7.12502
lthumb 13.9813 85.9321
rfemur -7.08231 6.50988 33.2518
rtibia 19.2075
rfoot -12.4641 -5.40218
rtoes 15.7139
lfemur -32.0487 4.15746 -6.71713
ltibia 37.3828
lfoot -7.20104 6.39386
ltoes -12.1337
264
root 20.7358 17.8421 4.08669 130.652 -78.2119 -124.758
lowerback -2.5526 -0.484972 7.48769
upperback -3.49691 -0.843316 4.02474
thorax -2.22929 -0.623651 -0.033945
lowerneck -9.46553 1.28165 -5.23709
upperneck -12.3448 2.33575 11.5931
head -2.2774 0.892489 4.44024
rclavicle -2.44381e-014 -3.61788e-014
rhumerus -5.54983 15.0181 -99.1802
rradius 79.836
rwrist -52.6706
rhand -12.151 -62.7192
rfingers 7.12502
rthumb 13.9114 -627.766
lclavicle -2.44381e-014 -3.61788e-014
lhumerus 2.1158 -13.5801 103.994
lradius 46.625
lwrist 48.655
lhand -11.9969 56.237
lfingers 7.12502
lthumb 14.06 85.7414
rfemur -6.68052 6.6427 33.2199
rtibia 19.2069
rfoot -12.8123 -5.28162
rtoes 15.3074
lfemur -32.1626 4.2742 -6.55702
ltibia 35.748
lfoot -7.1415 6.87515
ltoes -12.1193
265
root 20.6076 17.8304 4.09767 132.361 -77.9503 -126.392
lowerback -2.59813 -0.532615 7.43885
upperback -3.49134 -0.912816 4.03942
thorax -2.20035 -0.656667 0.00707941
lowerneck -9.42417 1.43142 -5.23565
upperneck -12.3942 2.53753 11.6608
head -2.31626 0.98546 4.46235
rclavicle 3.92103e-014 1.09332e-014
rhumerus -6.55197 15.456 -99.2979
rradius 79.5336
rwrist -52.6165
rhand -12.1704 -62.6386
rfingers 7.12502
rthumb 13.8928 -627.845
lclavicle 3.92103e-014 1.09332e-014
lhumerus 3.97392 -13.6243 103.515
lradius 46.5555
lwrist 48.7256
lhand -11.9017 56.0423
lfingers 7.12502
lthumb 14.1517 85.5403
rfemur -6.28686 6.7703 33.1804
rtibia 19.2234
rfoot -13.1612 -5.17203
rtoes 14.8786
lfemur -32.2476 4.3681 -6.38815
ltibia 34.1259
lfoot -7.06137 7.35496
ltoes -12.1037
266
root 20.4785 17.818 4.10899 133.944 -77.6903 -127.898
lowerback -2.642 -0.57934 7.38488
upperback -3.49117 -0.980512 4.05511
thorax -2.17758 -0.688982 0.0520507
lowerneck -9.37902 1.57022 -5.2427
upperneck -12.4354 2.72553 11.7305
head -2.35234 1.07228 4.48611
rclavicle 4.94477e-015 1.39149e-014
rhumerus -7.54111 15.9076 -99.4121
rradius 79.2311
rwrist -52.5666
rhand -12.1781 -62.5163
rfingers 7.12502
rthumb 13.8854 -627.967
lclavicle 4.94477e-015 1.39149e-014
lhumerus 5.88673 -13.6696 103.006
lradius 46.4919
lwrist 48.7849
lhand -11.7958 55.8302
lfingers 7.12502
lthumb 14.2537 85.321
rfemur -5.90271 6.89139 33.1332
rtibia 19.2589
rfoot -13.5095 -5.07339
rtoes 14.4238
lfemur -32.3068 4.43853 -6.21272
ltibia 32.5293
lfoot -6.96265 7.8329
ltoes -12.0894
